<?xml version="1.0" standalone="no"?>
<!DOCTYPE svg PUBLIC "-//W3C//DTD SVG 20010904//EN"
 "http://www.w3.org/TR/2001/REC-SVG-20010904/DTD/svg10.dtd">
<svg version="1.0" xmlns="http://www.w3.org/2000/svg"
 width="512.000000pt" height="512.000000pt" viewBox="0 0 512.000000 512.000000"
 preserveAspectRatio="xMidYMid meet">
<metadata>
Created by potrace 1.14, written by Peter Selinger 2001-2017
</metadata>
<g transform="translate(0.000000,512.000000) scale(0.100000,-0.100000)"
fill="#000000" stroke="none">
<path d="M2379 5116 c-2 -2 -40 -6 -83 -10 -44 -4 -82 -8 -85 -10 -3 -2 -31
-7 -61 -11 -30 -3 -75 -11 -100 -17 -25 -5 -56 -12 -70 -14 -14 -3 -72 -18
-129 -35 -464 -133 -906 -414 -1213 -769 -71 -82 -82 -96 -104 -125 -10 -15
-33 -46 -50 -69 -253 -340 -426 -793 -472 -1236 -9 -87 -9 -405 0 -505 19
-215 82 -477 165 -690 35 -89 122 -270 159 -332 10 -17 36 -61 58 -97 47 -78
161 -231 235 -316 381 -434 884 -723 1451 -834 194 -37 288 -45 525 -41 215 3
236 5 390 31 981 165 1788 905 2040 1869 65 249 80 375 80 680 0 220 -5 270
-47 480 -176 887 -818 1621 -1678 1917 -88 30 -297 86 -353 94 -18 2 -45 7
-62 9 -16 3 -50 8 -75 11 -25 3 -56 8 -70 11 -27 6 -445 14 -451 9z"/>
</g>
</svg>
